<!DOCTYPE svg PUBLIC "-//W3C//DTD SVG 1.1//EN" "http://www.w3.org/Graphics/SVG/1.1/DTD/svg11.dtd">
<!-- Uploaded to: SVG Repo, www.svgrepo.com, Transformed by: SVG Repo Mixer Tools -->
<svg width="800px" height="800px" viewBox="-8 -8 96.05 96.05" xmlns="http://www.w3.org/2000/svg" fill="#0400e0">
<g id="SVGRepo_bgCarrier" stroke-width="0">
<path transform="translate(-8, -8), scale(3.0015624999999995)" d="M16,28.14311581850052C17.78447531221733,27.135407636465086,18.480910621646938,24.97391102977935,19.972028170831333,23.56806737753042C21.014138585687554,22.58555307980153,22.39324163699474,22.1146030421542,23.435794812790775,21.132558573898763C24.666688038641244,19.973105117209055,26.505917287832155,18.97739421915413,26.635455853850544,17.291378142247336C26.766379309855612,15.587336956262572,24.518352815040416,14.589172004958272,24.06513897558114,12.941296241865905C23.54484625532059,11.049523112312578,25.153266304948776,8.607023670903265,23.844891876400077,7.144947597924853C22.59399851366182,5.747105194710201,20.036788928743345,7.319786856023748,18.332782448457678,6.5355295613098345C16.059290430154455,5.489170453843736,15.015925528554153,1.6145836576358255,12.534361968612888,1.9393537871695496C10.192850818359641,2.245794811630114,10.453538914299425,6.179481109913384,8.72873766644164,7.79244150112606C7.070497127895756,9.343157162481042,3.5277429278955537,8.845212300615911,2.8369844502350414,11.007926676484509C2.1299302983308377,13.221661619007119,5.134073264524922,14.997773395092572,5.708158033687596,17.249655862559734C6.187149637555432,19.12852959820541,5.446657847598108,21.091333045740786,5.888886372234838,22.979197819254143C6.467763698959091,25.450413610243697,6.421350985151832,28.789375396566697,8.681733736729235,29.943791379392174C10.952008507593472,31.103259385004133,13.780261515854063,29.39662076594266,16,28.14311581850052" fill="#ffffff" strokewidth="0"/>
</g>
<g id="SVGRepo_tracerCarrier" stroke-linecap="round" stroke-linejoin="round"/>
<g id="SVGRepo_iconCarrier"> <path id="One57" d="M310.544,337.486a32,32,0,0,1-4.524-56.614v2.393A30,30,0,0,0,308,333.974V301h0V278.384a14,14,0,0,1,10-13.413l19.977-5.017v.47l.02-.013v73.564a30,30,0,0,0,2.019-50.681V280.9a32.215,32.215,0,0,1,10.865,11.392,32.015,32.015,0,0,1-40.341,45.2ZM323,338c.334,0,.668-.006,1-.016V336l2,0v1.854q1.011-.1,2-.268V336l2,0v1.178a29.751,29.751,0,0,0,6-2.142V262.6l-18,4.5a11.978,11.978,0,0,0-7.988,11.288l0,3.394A14.041,14.041,0,0,1,318,275.6v2.124h0v59.864c.659.111,1.327.2,2,.268V336l2,0v1.986C322.331,337.995,322.666,338,323,338Zm-7-.824V278.645a11.959,11.959,0,0,0-5.986,10.363L310,335.035A29.777,29.777,0,0,0,316,337.176ZM332,334v-4l2,0v4Zm-4,0v-4l2,0v4Zm-4,0v-4l2,0v4Zm-4,0v-4l2,0v4Zm-8,0v-4l2,0v4Zm20-6v-4l2,0v4Zm-4,0v-4l2,0v4Zm-4,0v-4l2,0v4Zm-4,0v-4l2,0v4Zm-8,0v-4l2,0v4Zm20-6v-4l2,0v4Zm-4,0v-4l2,0v4Zm-4,0v-4l2,0v4Zm-4,0v-4l2,0v4Zm-8,0v-4l2,0v4Zm20-6v-4l2,0v4Zm-4,0v-4l2,0v4Zm-4,0v-4l2,0v4Zm-4,0v-4l2,0v4Zm-8,0v-4l2,0v4Zm20-6v-4l2,0v4Zm-4,0v-4l2,0v4Zm-4,0v-4l2,0v4Zm-4,0v-4l2,0v4Zm-8,0v-4l2,0v4Zm20-6v-4l2,0v4Zm-4,0v-4l2,0v4Zm-4,0v-4l2,0v4Zm-4,0v-4l2,0v4Zm-8,0v-4l2,0v4Zm20-6v-4l2,0v4Zm-4,0v-4l2,0v4Zm-4,0v-4l2,0v4Zm-4,0v-4l2,0v4Zm-8,0v-4l2,0v4Zm20-6v-4l2,0v4Zm-4,0v-4l2,0v4Zm-4,0v-4l2,0v4Zm-4,0v-4l2,0v4Zm-8,0v-4l2,0v4Zm20-6v-4l2,0v4Zm-4,0v-4l2,0v4Zm-4,0v-4l2,0v4Zm-4,0v-4l2,0v4Zm12-6v-4l2,0v4Zm-4,0v-4l2,0v4Zm-4,0v-4l2,0v4Zm-4,0v-4l2,0v4Zm12-6v-4l2,0v4Zm-4,0v-4l2,0v4Zm-4,0v-4l2,0v4Zm-4,0v-4l2,0v4Z" transform="translate(-291 -259.953)" fill="#0400e0"/> </g>
</svg>